<svg id="logo-delphix-icon-reg" xmlns="http://www.w3.org/2000/svg" viewBox="0 0 117.69 131.87">
    <g>
      <path d="M93.65,63.05c.23,6.47-3,12.58-8.4,16.06.36-6.68-2.93-13.3-9.1-16.87-6.19-3.58-13.61-3.09-19.22.6.33-6.41,4.04-12.26,9.8-15.29-4.48-8.47-4.72-18.97.24-27.97L6.67,54.39c-6.02,3.47-6.67,9.23-6.67,11.55s.65,8.07,6.67,11.55l28.98,16.73c-5.88-10.86-6.14-24.44.51-35.95,1.4-2.43,3.05-4.64,4.88-6.62-4.98,16.03,1.53,33.92,16.62,42.63,15.1,8.72,33.84,5.41,45.23-6.92-.8,2.57-1.89,5.1-3.29,7.53-6.64,11.51-18.54,18.08-30.88,18.42l28.98,16.73c6.02,3.47,11.33,1.16,13.33,0,2-1.16,6.67-4.6,6.67-11.55V48.87c-5.31,8.77-14.48,13.81-24.04,14.19Z" fill="#4c00ff"/>
      <path d="M84.46,47.85c10.85,6.27,24.05,4.75,33.23-2.78V13.38c0-6.95-4.66-10.39-6.67-11.55-2-1.16-7.31-3.47-13.33,0l-27.44,15.84c-1.93,11.72,3.35,23.9,14.2,30.17ZM91.83,14.36c7.85-2.1,15.91,2.53,18,10.35,1.69,6.3-1.02,12.74-6.24,16.11.29-5.34-2.34-10.64-7.28-13.49-4.95-2.86-10.89-2.47-15.38.48.32-6.19,4.57-11.74,10.89-13.44Z" fill="#4c00ff"/>
    </g>
</svg>