<svg id="logo-perfecto-icon-reg" xmlns="http://www.w3.org/2000/svg" viewBox="0 0 117.69 131.87">
    <g>
      <path d="M114.5,24.07c1.22,1.58,2.28,3.24,3.19,4.94v-15.64c0-6.95-4.66-10.39-6.67-11.55-2-1.16-7.31-3.47-13.33,0l-13.83,7.99c11.53-.49,23.1,4.43,30.64,14.25Z" fill="#4c00ff"/>
      <path d="M107.62,75.52c-10.06,7.72-22.82,9.44-33.99,5.74l-9.44,16.35s0,0,0,0l-3.83,6.63c-1.01,1.75-3.25,2.35-5,1.34l42.34,24.44c6.02,3.47,11.33,1.16,13.33,0,2-1.16,6.67-4.6,6.67-11.55v-54.83c-2.4,4.49-5.77,8.56-10.07,11.87Z" fill="#4c00ff"/>
      <path d="M24.13,79.07c2.03-3.52,6.53-4.72,10.05-2.69l19.01,10.97,25.74-44.59c2.03-3.52,6.52-4.73,10.02-2.71,3.5,2.02,4.7,6.52,2.67,10.03l-10.4,18.02c8.91,1.64,18.29-2.37,23.09-10.69,6.09-10.55,2.51-24.03-8-30.1-2.58-1.49-5.33-2.39-8.11-2.75h.11c-7.54-.99-14.67,1.92-19.36,7.16-.96,1.09-1.83,2.29-2.59,3.61v-.04c-1.44,2.44-2.41,5.21-2.81,8.19-.53,4.03-4.23,6.86-8.25,6.33-4.03-.53-6.86-4.23-6.33-8.25.71-5.4,2.58-10.37,5.31-14.7L6.67,54.39c-6.02,3.47-6.67,9.23-6.67,11.55s.65,8.07,6.67,11.55l20.16,11.64c-3.52-2.03-4.72-6.53-2.69-10.05Z" fill="#4c00ff"/>
    </g>
</svg>